<svg id="Capa_1" enable-background="new 0 0 512 512" height="512" viewBox="0 0 512 512" width="512" xmlns="http://www.w3.org/2000/svg"><g><g><path d="m92.566 404.138h-80.074c-2.76 0-4.997 2.237-4.997 4.997v49.968c0 2.76 2.237 4.997 4.997 4.997h80.074c2.76 0 4.997-2.237 4.997-4.997v-49.968c-.001-2.76-2.238-4.997-4.997-4.997z" fill="#e7ecf6"/></g><g><path d="m499.508 313.792h-86.685c-14.529 0-27.971 6.583-36.88 18.06s-11.952 26.132-8.348 40.209l8.108 31.656c.021.084.025.132.027.132-.019.084-.143.245-.209.279-.012.003-.06.011-.147.011h-185.863c-2.76 0-4.997 2.237-4.997 4.997v49.968c0 2.76 2.237 4.997 4.997 4.997h185.863c18.767 0 36.129-8.502 47.636-23.328 11.506-14.825 15.434-33.754 10.779-51.933l-2.905-11.342c-.486-1.898.947-3.744 2.906-3.744h65.716c2.76 0 4.997-2.237 4.997-4.997v-49.968c.002-2.76-2.235-4.997-4.995-4.997z" fill="#e7ecf6"/></g><g><path d="m92.566 404.138h-16.887v33.081c0 2.76-2.237 4.997-4.997 4.997h-63.187v16.887c0 2.76 2.237 4.997 4.997 4.997h80.074c2.76 0 4.997-2.237 4.997-4.997v-49.968c-.001-2.76-2.238-4.997-4.997-4.997z" fill="#d8e2f1"/></g><g><path d="m499.508 313.792h-16.887v33.081c0 2.76-2.237 4.997-4.997 4.997h-65.716c-1.959 0-3.392 1.847-2.906 3.744l2.905 11.342c4.655 18.179.727 37.107-10.779 51.933-11.507 14.825-28.869 23.328-47.636 23.328h-168.977v16.887c0 2.76 2.237 4.997 4.997 4.997h185.863c18.767 0 36.129-8.502 47.636-23.328 11.506-14.825 15.434-33.754 10.779-51.933l-2.905-11.342c-.486-1.898.947-3.744 2.906-3.744h65.716c2.76 0 4.997-2.237 4.997-4.997v-49.968c.001-2.76-2.236-4.997-4.996-4.997z" fill="#d8e2f1"/></g><g><path d="m405.418 201.81-36.673-146.326c-1.888-7.532-11.269-10.128-16.76-4.637l-282.083 282.082c-4.471 4.471-6.266 10.96-4.729 17.093l18.613 74.264c1.449 5.78 6.643 9.833 12.602 9.833h79.978c5.831 0 11.423-2.316 15.546-6.44l208.778-208.776c4.47-4.471 6.266-10.96 4.728-17.093z" fill="#e28086"/></g><g><path d="m405.418 201.81-36.673-146.326c-1.888-7.532-11.269-10.128-16.76-4.637 0 0-34.373 34.373-34.373 34.373l29.221 116.59c1.537 6.133-.258 12.622-4.729 17.093l-215.217 215.216h49.479c5.831 0 11.423-2.316 15.546-6.44l208.778-208.776c4.47-4.471 6.266-10.961 4.728-17.093z" fill="#dd636e"/></g><g><path d="m351.984 50.847-123.71 123.71 108.38 108.38 64.034-64.034c4.471-4.471 6.266-10.96 4.729-17.093l-36.672-146.326c-1.888-7.533-11.27-10.128-16.761-4.637z" fill="#9dc6fb"/></g><g><path d="m351.984 50.847-34.373 34.373 29.221 116.59c1.537 6.133-.258 12.622-4.729 17.093l-34.741 34.741 29.293 29.293 64.034-64.034c4.471-4.471 6.266-10.96 4.729-17.093l-36.673-146.326c-1.888-7.533-11.27-10.128-16.761-4.637z" fill="#80b4fb"/></g><path d="m499.508 306.296h-86.685c-16.861 0-32.462 7.64-42.801 20.959-10.339 13.32-13.871 30.327-9.688 46.664l5.82 22.723h-132.604l172.439-172.44c6.299-6.297 8.865-15.576 6.701-24.215l-36.675-146.326c-1.552-6.19-6.15-10.902-12.302-12.603-6.152-1.703-12.518-.023-17.029 4.489l-282.082 282.082c-6.298 6.298-8.864 15.577-6.7 24.215l11.228 44.799h-56.638c-6.888 0-12.492 5.604-12.492 12.492v49.968c0 6.888 5.604 12.492 12.492 12.492h64.903c4.14 0 7.495-3.355 7.495-7.495s-3.355-7.495-7.495-7.495h-62.405v-44.971h57.897l3.628 14.473c2.288 9.131 10.46 15.508 19.873 15.508h79.978c.218 0 .435-.011.653-.016v17.505c0 6.888 5.604 12.492 12.492 12.492h65.805c4.14 0 7.495-3.355 7.495-7.495s-3.355-7.495-7.495-7.495h-63.306v-19.48c1.862-1.17 3.61-2.551 5.204-4.145l21.346-21.347h156.815c4.957.169 8.981-5.022 7.59-9.777l-8.108-31.655c-3.025-11.817-.471-24.119 7.008-33.754 7.479-9.634 18.762-15.16 30.959-15.16h84.186v44.971h-67.083c-2.316 0-4.501 1.071-5.921 2.9s-1.915 4.212-1.34 6.455l3.864 15.086c4.076 15.919.636 32.496-9.439 45.478-10.077 12.983-25.282 20.428-41.715 20.428h-83.492c-4.14 0-7.495 3.355-7.495 7.495s3.355 7.495 7.495 7.495h83.492c21.099 0 40.62-9.559 53.557-26.227 12.936-16.667 17.353-37.949 12.119-58.387l-1.468-5.732h59.924c6.888 0 12.492-5.604 12.492-12.492v-49.968c0-6.89-5.604-12.494-12.492-12.494zm-141.821-250.478c1.425-.796 3.122-.512 3.787 1.488l7.34 29.288-87.252 87.252c-2.927 2.928-2.927 7.673 0 10.601 1.464 1.463 3.383 2.195 5.3 2.195s3.836-.732 5.3-2.195l80.9-80.9 25.085 100.086c.892 3.557-.165 7.377-2.759 9.97l-58.734 58.734-97.78-97.779 118.41-118.41c0-.001 0-.001 0-.001.133-.133.268-.237.403-.329zm-282.484 282.411 153.072-153.072 20.988 20.988-169.852 169.853-6.967-27.799c-.892-3.557.165-7.377 2.759-9.97zm111.41 84.15c-2.737 2.737-6.376 4.244-10.246 4.244h-79.979c-2.526 0-4.718-1.711-5.332-4.16l-7.396-29.513 176.203-176.204 66.191 66.191z"/></g></svg>